<?xml version="1.0" encoding="iso-8859-1"?>
<!-- Generator: Adobe Illustrator 19.0.0, SVG Export Plug-In . SVG Version: 6.00 Build 0)  -->
<svg version="1.1" id="Layer_1" xmlns="http://www.w3.org/2000/svg" xmlns:xlink="http://www.w3.org/1999/xlink" x="0px" y="0px"
	 viewBox="0 0 512 512" style="enable-background:new 0 0 512 512;" xml:space="preserve">
<circle style="fill:#C2D5D8;" cx="256" cy="256" r="256"/>
<path style="fill:#CC827A;" d="M384,376c0,13.2-10.8,24-24,24H152c-13.2,0-24-10.8-24-24V152c0-13.2,10.8-24,24-24h208
	c13.2,0,24,10.8,24,24V376z"/>
<path style="fill:#CC584C;" d="M380,376v-28h4v-16h-4v-4h4v-16h-4v-28h4v-16h-4v-4h4v-16h-4v-28h4v-16h-4v-4h4v-16h-4v-28h4v-4
	c0-4.368-1.204-8.46-3.264-12H380v-1.208C375.692,132.304,368.328,128,360,128H152c-13.2,0-24,10.8-24,24v4v28v16v4v16v28v16v4v16
	v28v16v4v16v28c0,13.2,10.8,24,24,24h208c13.2,0,24-10.8,24-24H380z M172,396h-28v-4h28V396z M172,376h-28v-28h28V376z M172,332h-28
	v-4h28V332z M172,312h-28v-28h28V312z M172,268h-28v-4h28V268z M172,248h-28v-28h28V248z M172,204h-28v-4h28V204z M172,184h-28v-28
	h28V184z M172,140h-28v-4h28V140z M192,396h-4v-4h4V396z M192,376h-4v-28h4V376z M192,332h-4v-4h4V332z M192,312h-4v-28h4V312z
	 M192,268h-4v-4h4V268z M192,248h-4v-28h4V248z M192,204h-4v-4h4V204z M192,184h-4v-28h4V184z M192,140h-4v-4h4V140z M236,396h-28
	v-4h28V396z M236,376h-28v-28h28V376z M236,332h-28v-4h28V332z M236,312h-28v-28h28V312z M236,268h-28v-4h28V268z M236,248h-28v-28
	h28V248z M236,204h-28v-4h28V204z M236,184h-28v-28h28V184z M236,140h-28v-4h28V140z M256,396h-4v-4h4V396z M256,376h-4v-28h4V376z
	 M256,332h-4v-4h4V332z M256,312h-4v-28h4V312z M256,268h-4v-4h4V268z M256,248h-4v-28h4V248z M256,204h-4v-4h4V204z M256,184h-4
	v-28h4V184z M256,140h-4v-4h4V140z M300,396h-28v-4h28V396z M300,376h-28v-28h28V376z M300,332h-28v-4h28V332z M300,312h-28v-28h28
	V312z M300,268h-28v-4h28V268z M300,248h-28v-28h28V248z M300,204h-28v-4h28V204z M300,184h-28v-28h28V184z M300,140h-28v-4h28V140z
	 M320,396h-4v-4h4V396z M320,376h-4v-28h4V376z M320,332h-4v-4h4V332z M320,312h-4v-28h4V312z M320,268h-4v-4h4V268z M320,248h-4
	v-28h4V248z M320,204h-4v-4h4V204z M320,184h-4v-28h4V184z M320,140h-4v-4h4V140z M364,396h-28v-4h28V396z M364,376h-28v-28h28V376z
	 M364,332h-28v-4h28V332z M364,312h-28v-28h28V312z M364,268h-28v-4h28V268z M364,248h-28v-28h28V248z M364,204h-28v-4h28V204z
	 M364,184h-28v-28h28V184z M364,140h-28v-4h28V140z"/>
<rect x="240" y="128" style="fill:#B34D42;" width="32" height="272"/>
<polygon style="fill:#A6473D;" points="272,128 252,128 272,184.668 "/>
<rect x="200" y="96" style="fill:#8C3C33;" width="112" height="32"/>
<polygon style="fill:#B34D42;" points="280,196 328,128 312,96 256,128 "/>
<polygon style="fill:#A6473D;" points="312,96 305.772,99.556 320,128 277.332,188.444 280,196 328,128 "/>
<polygon style="fill:#B34D42;" points="232,196 184,128 200,96 256,128 "/>
<polygon style="fill:#A6473D;" points="200,96 198.224,99.556 248,128 226.668,188.444 232,196 256,128 "/>
<g>
	<circle style="fill:#242424;" cx="256" cy="168" r="4"/>
	<circle style="fill:#242424;" cx="256" cy="196" r="4"/>
	<circle style="fill:#242424;" cx="256" cy="224" r="4"/>
	<circle style="fill:#242424;" cx="256" cy="252" r="4"/>
	<circle style="fill:#242424;" cx="256" cy="280" r="4"/>
	<circle style="fill:#242424;" cx="256" cy="308" r="4"/>
	<circle style="fill:#242424;" cx="256" cy="336" r="4"/>
	<circle style="fill:#242424;" cx="256" cy="364" r="4"/>
	<circle style="fill:#242424;" cx="256" cy="392" r="4"/>
</g>
<g>
</g>
<g>
</g>
<g>
</g>
<g>
</g>
<g>
</g>
<g>
</g>
<g>
</g>
<g>
</g>
<g>
</g>
<g>
</g>
<g>
</g>
<g>
</g>
<g>
</g>
<g>
</g>
<g>
</g>
</svg>
